<svg width="184" height="34" viewBox="0 0 184 34" fill="none" xmlns="http://www.w3.org/2000/svg">
<path d="M59.1545 12.5685C59.8857 13.7459 60.2631 15.0758 60.2788 16.5158V18.3624C60.2788 19.8278 59.9171 21.1661 59.2016 22.352C58.4861 23.5379 57.4797 24.4781 56.2138 25.1388C54.9793 25.7826 53.6033 26.1129 52.1094 26.1214H46V8.88379H52.0465C53.5404 8.88379 54.9164 9.1972 56.143 9.82402C57.4089 10.4678 58.4232 11.3911 59.1545 12.5685ZM55.9857 14.5845C55.6241 13.9831 55.113 13.5087 54.4525 13.1614C53.7606 12.7972 52.9743 12.6024 52.1094 12.5939H49.7506V22.4113H52.0386C52.9114 22.4113 53.7055 22.2249 54.4053 21.8692C55.0658 21.5303 55.5926 21.0475 55.9622 20.4461C56.3317 19.8447 56.5204 19.1586 56.5283 18.4132V16.6174C56.5283 15.8635 56.3474 15.1859 55.9857 14.5845Z" fill="black"/>
<path d="M74.6278 8.87549L82.0425 26.1131H77.9459L76.6093 23.0044H69.8394L68.5106 26.1131H64.4141L71.8287 8.87549H74.6278ZM73.2283 15.1098L71.4355 19.3028H75.021L73.2283 15.1098Z" fill="black"/>
<path d="M100.891 20.897C100.891 23.777 98.5089 26.1233 95.584 26.1233H87.4224V8.97046H94.8763C97.8013 8.97046 100.184 11.3168 100.184 14.1968C100.184 15.2556 99.8613 16.2806 99.2559 17.1445C100.294 18.1187 100.891 19.4824 100.891 20.897ZM96.5039 14.1968C96.5039 13.3752 95.7805 12.7144 94.8842 12.7144H91.1179V15.6791H94.8842C95.7727 15.6707 96.5039 15.01 96.5039 14.1968ZM91.1179 22.3878H95.584C96.4725 22.3878 97.2037 21.7186 97.2037 20.9055C97.2037 20.0838 96.4803 19.4231 95.584 19.4231H91.1179V22.3878Z" fill="black"/>
<path d="M116.585 8.87549L123.999 26.1131H119.903L118.566 23.0044H111.796L110.468 26.1131H106.371L113.786 8.87549H116.585ZM115.185 15.1098L113.393 19.3028H116.978L115.185 15.1098Z" fill="black"/>
<path d="M140.086 18.9654L143.797 19.7616L143.569 21.0068C143.27 22.6162 142.523 23.8953 141.344 24.8185C140.078 25.8096 138.395 26.3178 136.343 26.3178C134.928 26.3178 133.638 25.996 132.522 25.3522C131.381 24.7 130.477 23.7597 129.848 22.5569C129.243 21.4049 128.928 20.0835 128.92 18.6266V16.4412C128.92 14.9927 129.219 13.6713 129.817 12.5024C130.438 11.2911 131.334 10.3339 132.49 9.66471C133.622 9.01248 134.912 8.68213 136.335 8.68213C138.364 8.68213 140.046 9.18189 141.32 10.1645C142.106 10.7744 142.704 11.5452 143.105 12.4685C143.309 12.9428 143.443 13.4595 143.537 14.1202L143.632 14.8063L139.968 15.611L139.905 14.9758C139.881 14.764 139.858 14.5946 139.818 14.4421L139.803 14.3743C139.685 13.9339 139.496 13.5781 139.221 13.2901L139.166 13.2223C139.056 13.0953 138.851 12.9513 138.584 12.8242C138.513 12.7904 138.45 12.7649 138.387 12.7395L138.332 12.7141C138.285 12.6972 138.238 12.6802 138.183 12.6633C138.01 12.604 137.837 12.5532 137.656 12.5193C137.499 12.4854 137.373 12.46 137.263 12.4431L136.964 12.4176C136.744 12.4007 136.547 12.3838 136.335 12.3838C135.195 12.3838 134.354 12.7141 133.685 13.4256C133.001 14.1541 132.671 15.1536 132.671 16.4666V18.5503C132.671 19.3974 132.828 20.1428 133.143 20.7696C133.434 21.3541 133.843 21.7861 134.385 22.108C134.935 22.4383 135.596 22.5993 136.343 22.5993C137.53 22.5993 138.427 22.3706 139.008 21.9301C139.158 21.8115 139.299 21.659 139.441 21.4557C139.826 20.9306 140.031 20.3292 140.054 19.643L140.086 18.9654Z" fill="black"/>
<path d="M160.797 8.88379H164.547V18.5487C164.547 20.0311 164.233 21.3694 163.611 22.5299C162.967 23.7412 162.039 24.6814 160.852 25.3421C160.757 25.3929 160.679 25.4353 160.608 25.4692C160.38 25.5793 160.152 25.6894 159.916 25.7741C159.688 25.8588 159.444 25.9435 159.193 26.0113C158.965 26.0706 158.737 26.1214 158.509 26.1637C158.241 26.2146 157.974 26.2484 157.699 26.2739C157.471 26.2908 157.235 26.2993 157.007 26.2993H156.857C156.582 26.2908 156.307 26.2739 156.008 26.24C155.757 26.2061 155.505 26.1722 155.261 26.1129C155.017 26.0621 154.774 25.9943 154.53 25.9181C154.294 25.8419 154.058 25.7572 153.83 25.664C153.602 25.5623 153.382 25.4607 153.17 25.3421C151.975 24.6814 151.047 23.7327 150.402 22.5299C149.781 21.3609 149.466 20.0226 149.466 18.5487V8.88379H153.217V18.4725C153.217 19.8193 153.555 20.8273 154.247 21.5473C154.318 21.615 154.381 21.6828 154.451 21.7421C154.53 21.8099 154.624 21.8861 154.711 21.9454C154.805 22.0047 154.892 22.064 154.994 22.1233C155.088 22.1741 155.198 22.2249 155.301 22.2673C155.411 22.3096 155.521 22.352 155.639 22.3859C155.764 22.4198 155.89 22.4536 156.016 22.479C156.15 22.5045 156.283 22.5299 156.425 22.5468C156.574 22.5638 156.724 22.5722 156.881 22.5807C157.038 22.5892 157.203 22.5807 157.384 22.5722C157.541 22.5638 157.699 22.5383 157.856 22.5129C157.997 22.4875 158.131 22.4621 158.265 22.4282C158.391 22.3943 158.509 22.352 158.626 22.3096C158.737 22.2673 158.847 22.2165 158.949 22.1656C159.059 22.1148 159.153 22.0555 159.255 21.9878C159.35 21.9285 159.444 21.8607 159.531 21.7845C159.617 21.7082 159.704 21.632 159.782 21.5473C160.474 20.8273 160.812 19.8193 160.812 18.464V8.88379H160.797Z" fill="black"/>
<path d="M183.56 19.1264C183.85 19.7279 184 20.414 184 21.1763C184 22.718 183.379 23.9801 182.152 24.9288C181.075 25.7589 179.667 26.2248 177.969 26.301L177.269 26.3095C175.201 26.2502 173.566 25.742 172.379 24.8102C171.427 24.0563 170.806 23.0737 170.547 21.8963L170.201 20.3293L173.912 19.5076L174.258 21.0493C174.344 21.422 174.525 21.7015 174.863 21.9387C175.461 22.3791 176.349 22.5994 177.505 22.5994C178.409 22.5994 179.133 22.4046 179.667 22.0234C180.21 21.6337 180.21 21.3288 180.21 21.1848C180.21 20.9476 180.171 20.7697 180.1 20.6681C180.061 20.6088 179.872 20.397 179.298 20.109C178.85 19.8888 177.71 19.5669 176.798 19.3128L176.381 19.1942C174.973 18.7961 173.943 18.4149 173.228 18.0083C172.402 17.5424 171.765 16.9664 171.333 16.2973C170.877 15.5857 170.641 14.7472 170.641 13.79C170.641 12.2145 171.286 10.9354 172.552 9.98669C173.66 9.15658 175.076 8.71611 176.758 8.66528H177.458C179.337 8.74999 180.815 9.28363 181.885 10.2578C182.687 10.9947 183.214 11.9434 183.449 13.0869L183.764 14.6286L180.068 15.4417L179.73 13.8832C179.644 13.4935 179.479 13.2055 179.196 12.9599C178.732 12.5533 178.024 12.35 177.096 12.35C176.153 12.35 175.429 12.5279 174.934 12.8921C174.58 13.1462 174.439 13.4003 174.439 13.7646C174.439 14.1966 174.533 14.3321 174.533 14.3406C174.572 14.3914 174.73 14.5862 175.225 14.8319C175.728 15.086 176.483 15.3486 177.466 15.6281L178.048 15.789C179.117 16.077 180.226 16.382 181.287 16.9156C182.309 17.4408 183.088 18.1862 183.536 19.0756L183.56 19.1264Z" fill="black"/>
<path d="M13.8829 0C5.97134 1.54357 0 8.56566 0 16.9977C0 25.4297 5.97134 32.4518 13.8829 33.9954V28.0377C13.8829 27.54 13.5907 27.0885 13.1342 26.8996C9.27201 25.3007 6.55112 21.4717 6.55112 16.9977C6.55112 12.5236 9.27201 8.69467 13.1342 7.09581C13.5907 6.9069 13.8829 6.45535 13.8829 5.95772V0Z" fill="black"/>
<path d="M20.4355 0V5.95772C20.4355 6.45535 20.7277 6.9069 21.1842 7.09581C25.0464 8.69467 27.7673 12.5236 27.7673 16.9977C27.7673 21.4717 25.0464 25.3007 21.1842 26.9042C20.7277 27.0931 20.4355 27.5447 20.4355 28.0423V34C28.3426 32.4564 34.3185 25.4343 34.3185 17.0023C34.3185 8.56566 28.3471 1.54357 20.4355 0Z" fill="black"/>
</svg>
