<svg width="212" height="38" viewBox="0 0 212 38" fill="none" xmlns="http://www.w3.org/2000/svg">
<path d="M51.7021 22.8932L57.4113 17.652V27.9159H61.3421C62.2988 27.9159 63.1308 27.7495 63.8379 27.4168C64.545 27.084 65.1378 26.6472 65.6162 26.1065C66.0945 25.5657 66.4481 24.9522 66.6769 24.2658C66.9264 23.5587 67.0512 22.8516 67.0512 22.1444C67.0512 21.4165 66.9264 20.7093 66.6769 20.023C66.4481 19.3159 66.0945 18.6919 65.6162 18.1512C65.1378 17.6104 64.545 17.1736 63.8379 16.8409C63.1308 16.5081 62.2988 16.3417 61.3421 16.3417H56.0698L51.7021 11.1318H62.59C64.3371 11.1318 65.8657 11.4437 67.176 12.0677C68.5071 12.6916 69.6094 13.5236 70.4829 14.5635C71.3565 15.5826 72.0116 16.7473 72.4484 18.0576C72.8851 19.3471 73.1035 20.6781 73.1035 22.0508C73.1035 23.4235 72.8851 24.765 72.4484 26.0753C72.0116 27.3648 71.3565 28.5295 70.4829 29.5694C69.6094 30.5885 68.5071 31.41 67.176 32.034C65.8657 32.6579 64.3371 32.9699 62.59 32.9699H51.7021V22.8932Z" fill="black"/>
<path d="M76.8967 21.5517H86.1311L83.1985 11.1318H89.4068L95.5527 32.9699H89.3132L87.5662 26.7616H81.6699L79.9228 32.9699H73.7145L76.8967 21.5517Z" fill="black"/>
<path d="M111.605 27.7599C112.416 27.7599 113.019 27.5935 113.414 27.2608C113.83 26.9072 114.038 26.5224 114.038 26.1065C114.038 25.6905 113.83 25.3161 113.414 24.9834C113.019 24.6298 112.416 24.453 111.605 24.453H104.336V27.7599H111.605ZM104.024 19.2431H111.605C112.395 19.2431 112.977 19.0975 113.352 18.8063C113.726 18.4943 113.913 18.1512 113.913 17.7768C113.913 17.4232 113.726 17.1008 113.352 16.8097C112.977 16.4977 112.395 16.3417 111.605 16.3417H102.869L98.3458 11.1318H112.104C113.414 11.1318 114.548 11.3293 115.504 11.7245C116.482 12.0989 117.293 12.598 117.938 13.222C118.603 13.8459 119.092 14.5531 119.404 15.3434C119.737 16.1337 119.903 16.9449 119.903 17.7768C119.903 18.5047 119.778 19.2223 119.529 19.9294C119.279 20.6365 118.905 21.2917 118.406 21.8948C118.905 22.498 119.279 23.1635 119.529 23.8915C119.778 24.6194 119.903 25.3681 119.903 26.1377C119.903 26.9904 119.737 27.8327 119.404 28.6647C119.092 29.4758 118.603 30.2037 117.938 30.8485C117.293 31.4724 116.482 31.982 115.504 32.3771C114.548 32.7723 113.414 32.9699 112.104 32.9699H98.3458V24.453L104.024 19.2431Z" fill="black"/>
<path d="M123.693 21.5517H132.927L129.995 11.1318H136.203L142.349 32.9699H136.109L134.362 26.7616H128.466L126.719 32.9699H120.511L123.693 21.5517Z" fill="black"/>
<path d="M160.117 17.34C159.617 16.8201 159.025 16.4249 158.338 16.1545C157.652 15.8634 156.872 15.7178 155.998 15.7178C155.104 15.7178 154.303 15.8738 153.596 16.1857C152.91 16.4769 152.328 16.9033 151.849 17.4648C151.371 18.0264 151.007 18.7023 150.757 19.4926C150.508 20.2622 150.383 21.1149 150.383 22.0508C150.383 23.9643 150.872 25.5033 151.849 26.668C152.827 27.8119 154.21 28.3839 155.998 28.3839C156.934 28.3839 157.766 28.2279 158.494 27.9159C159.222 27.5832 159.825 27.1256 160.304 26.5432L164.016 30.8173C163.018 31.7116 161.843 32.3979 160.491 32.8763C159.139 33.3547 157.652 33.5938 156.03 33.5938C154.303 33.5938 152.733 33.3235 151.319 32.7827C149.905 32.2212 148.688 31.4308 147.669 30.4117C146.67 29.3926 145.891 28.1759 145.329 26.7616C144.788 25.3473 144.518 23.7667 144.518 22.0196C144.518 20.2934 144.788 18.7231 145.329 17.3088C145.891 15.8946 146.67 14.6883 147.669 13.6899C148.688 12.6708 149.905 11.8909 151.319 11.3501C152.754 10.7886 154.335 10.5078 156.061 10.5078C157.746 10.5078 159.285 10.7678 160.678 11.2877C162.072 11.8077 163.278 12.5564 164.297 13.534L160.117 17.34Z" fill="black"/>
<path d="M188.572 11.1318V23.0803C188.572 24.8274 188.26 26.3561 187.636 27.6663C187.033 28.9766 186.221 30.0789 185.202 30.9733C184.204 31.8468 183.06 32.5019 181.771 32.9387C180.502 33.3755 179.192 33.5938 177.84 33.5938C176.509 33.5938 175.198 33.3755 173.909 32.9387C172.619 32.5019 171.465 31.8468 170.446 30.9733C169.448 30.0789 168.637 28.9766 168.013 27.6663C167.409 26.3561 167.108 24.8274 167.108 23.0803V11.1318H173.098V22.6748C173.098 23.6315 173.233 24.4634 173.503 25.1706C173.774 25.8777 174.127 26.4704 174.564 26.9488C175.022 27.4272 175.531 27.7911 176.093 28.0407C176.675 28.2695 177.257 28.3839 177.84 28.3839C178.443 28.3839 179.025 28.2695 179.587 28.0407C180.148 27.7911 180.648 27.4272 181.084 26.9488C181.542 26.4704 181.906 25.8777 182.176 25.1706C182.447 24.4634 182.582 23.6315 182.582 22.6748V16.7161L188.572 11.1318Z" fill="black"/>
<path d="M201.795 19.3679C203.417 19.3679 204.79 19.5654 205.913 19.9606C207.036 20.335 207.941 20.8445 208.627 21.4893C209.334 22.134 209.844 22.862 210.156 23.6731C210.488 24.4842 210.655 25.3265 210.655 26.2001C210.655 27.0944 210.478 27.9783 210.124 28.8518C209.792 29.7254 209.24 30.5157 208.471 31.2228C207.701 31.93 206.693 32.5019 205.445 32.9387C204.197 33.3755 202.679 33.5938 200.89 33.5938C200.016 33.5938 199.174 33.5002 198.363 33.3131C197.552 33.1467 196.803 32.9179 196.117 32.6267C195.43 32.3355 194.806 32.0132 194.245 31.6596C193.704 31.306 193.236 30.9421 192.841 30.5677L197.021 26.7616C197.437 27.24 197.978 27.6351 198.644 27.9471C199.309 28.2383 200.131 28.3839 201.108 28.3839C202.231 28.3839 203.095 28.2071 203.698 27.8535C204.322 27.4792 204.634 27.0736 204.634 26.6368C204.634 26.1585 204.28 25.7217 203.573 25.3265C202.866 24.9314 201.753 24.7338 200.235 24.7338C198.592 24.7338 197.209 24.5466 196.086 24.1722C194.962 23.7771 194.047 23.2675 193.34 22.6436C192.654 21.9988 192.155 21.2709 191.843 20.4598C191.531 19.6278 191.375 18.7855 191.375 17.9328C191.375 17.0385 191.541 16.1545 191.874 15.281C192.228 14.3867 192.789 13.5859 193.559 12.8788C194.328 12.1717 195.337 11.5997 196.585 11.163C197.833 10.7262 199.351 10.5078 201.14 10.5078C202.013 10.5078 202.855 10.6014 203.667 10.7886C204.478 10.955 205.226 11.1838 205.913 11.4749C206.599 11.7661 207.213 12.0885 207.753 12.442C208.315 12.7956 208.793 13.1596 209.188 13.534L205.008 17.34C204.592 16.8617 204.051 16.4769 203.386 16.1857C202.72 15.8738 201.899 15.7178 200.921 15.7178C199.798 15.7178 198.925 15.905 198.301 16.2793C197.697 16.6329 197.396 17.0281 197.396 17.4648C197.396 17.9432 197.749 18.3799 198.457 18.7751C199.164 19.1703 200.276 19.3679 201.795 19.3679Z" fill="black"/>
<path d="M14.9747 1.03205C14.9747 0.484899 14.9747 0.211326 14.7881 0.0724225C14.6015 -0.0664807 14.3496 0.0108716 13.8459 0.165576C5.83003 2.62735 0 10.1139 0 18.9666C0 27.8192 5.83003 35.3058 13.8459 37.7675C14.3496 37.9222 14.6015 37.9996 14.7881 37.8607C14.9747 37.7218 14.9747 37.4482 14.9747 36.9011V30.4326C14.9747 30.1405 14.9747 29.9944 14.9049 29.8818C14.835 29.7693 14.6969 29.7014 14.4208 29.5656C10.5194 27.647 7.83272 23.6214 7.83272 18.9666C7.83272 14.3117 10.5194 10.2861 14.4208 8.36755C14.6969 8.23176 14.835 8.16386 14.9049 8.05128C14.9747 7.9387 14.9747 7.79263 14.9747 7.5005V1.03205Z" fill="black"/>
<path d="M24.19 30.4326C24.19 30.1405 24.19 29.9944 24.2598 29.8818C24.3297 29.7693 24.4678 29.7014 24.7439 29.5656C28.6453 27.647 31.332 23.6214 31.332 18.9666C31.332 14.3117 28.6453 10.2861 24.7439 8.36755C24.4678 8.23176 24.3297 8.16386 24.2598 8.05128C24.19 7.9387 24.19 7.79263 24.19 7.5005V1.03205C24.19 0.4849 24.19 0.211326 24.3766 0.0724225C24.5632 -0.0664807 24.8151 0.0108716 25.3189 0.165576C33.3347 2.62735 39.1647 10.1139 39.1647 18.9666C39.1647 27.8192 33.3347 35.3058 25.3189 37.7675C24.8151 37.9222 24.5632 37.9996 24.3766 37.8607C24.19 37.7218 24.19 37.4482 24.19 36.9011V30.4326Z" fill="black"/>
</svg>
