<svg width="200" height="40" viewBox="0 0 200 40" fill="none" xmlns="http://www.w3.org/2000/svg">
<path d="M15.634 0.904333C15.634 0.484679 15.634 0.274852 15.4919 0.168181C15.3498 0.0615102 15.1532 0.118652 14.7601 0.232934C6.23483 2.71111 0 10.6234 0 20C0 29.3767 6.23483 37.2889 14.7601 39.7671C15.1532 39.8814 15.3498 39.9385 15.4919 39.8318C15.634 39.7252 15.634 39.5153 15.634 39.0957V31.8273C15.634 31.6027 15.634 31.4904 15.5791 31.4035C15.5241 31.3165 15.4184 31.2662 15.2071 31.1656C11.0522 29.1884 8.17754 24.9317 8.17754 20C8.17754 15.0683 11.0522 10.8116 15.2071 8.83439C15.4184 8.73382 15.5241 8.68354 15.5791 8.59655C15.634 8.50957 15.634 8.39729 15.634 8.17272V0.904333Z" fill="black"/>
<path d="M25.2549 31.8273C25.2549 31.6027 25.2549 31.4904 25.3098 31.4035C25.3648 31.3165 25.4704 31.2662 25.6818 31.1656C29.8367 29.1884 32.7113 24.9317 32.7113 20C32.7113 15.0683 29.8367 10.8116 25.6818 8.83439C25.4704 8.73382 25.3648 8.68354 25.3098 8.59655C25.2549 8.50957 25.2549 8.39729 25.2549 8.17272V0.904333C25.2549 0.484679 25.2549 0.274852 25.397 0.168181C25.5391 0.0615102 25.7357 0.118652 26.1288 0.232934C34.6541 2.71111 40.8889 10.6234 40.8889 20C40.8889 29.3767 34.6541 37.2889 26.1288 39.7671C25.7357 39.8813 25.5391 39.9385 25.397 39.8318C25.2549 39.7252 25.2549 39.5153 25.2549 39.0957V31.8273Z" fill="black"/>
<path fill-rule="evenodd" clip-rule="evenodd" d="M70.6664 31.1111H74.222V21.5556L74.222 8.88892H70.6664V14.1186C69.9596 13.5484 69.1713 13.0787 68.3232 12.7274C66.5771 12.0042 64.6558 11.8149 62.8022 12.1836C60.9486 12.5523 59.246 13.4624 57.9096 14.7988C56.5732 16.1352 55.6632 17.8378 55.2945 19.6914C55.2023 20.1548 55.145 20.6224 55.1222 21.0905C55.1087 21.367 55.1073 21.6437 55.1178 21.9197C55.1607 23.0454 55.4026 24.1607 55.8382 25.2123C56.5615 26.9584 57.7862 28.4508 59.3576 29.5007C60.1746 30.0467 61.0663 30.4602 61.9997 30.7315C62.8616 30.982 63.7591 31.1111 64.6664 31.1111V27.5677C63.4773 27.5677 62.3149 27.2151 61.3262 26.5545C60.3376 25.8939 59.567 24.9549 59.1119 23.8563C58.6569 22.7578 58.5378 21.5489 58.7698 20.3827C59.0018 19.2164 59.5744 18.1452 60.4152 17.3044C61.256 16.4636 62.3273 15.891 63.4935 15.659C64.6597 15.427 65.8686 15.5461 66.9671 16.0011C68.0657 16.4562 69.0047 17.2267 69.6653 18.2154C70.255 19.0981 70.5993 20.1191 70.6664 21.174V31.1111Z" fill="black"/>
<mask id="path-3-inside-1" fill="white">
<path d="M182.222 22.2227C182.222 24.5802 181.286 26.8411 179.619 28.5081C177.952 30.1751 175.691 31.1116 173.333 31.1116C170.976 31.1116 168.715 30.1751 167.048 28.5081C165.381 26.8411 164.444 24.5802 164.444 22.2227L164.444 8.88941L167.992 8.88941L167.992 22.2227C167.992 23.6394 168.555 24.998 169.556 25.9997C170.558 27.0014 171.917 27.5642 173.333 27.5642C174.75 27.5642 176.109 27.0014 177.11 25.9997C178.112 24.998 178.675 23.6394 178.675 22.2227L178.675 8.8894L182.222 8.8894L182.222 22.2227Z"/>
</mask>
<path d="M182.222 22.2227C182.222 24.5802 181.286 26.8411 179.619 28.5081C177.952 30.1751 175.691 31.1116 173.333 31.1116C170.976 31.1116 168.715 30.1751 167.048 28.5081C165.381 26.8411 164.444 24.5802 164.444 22.2227L164.444 8.88941L167.992 8.88941L167.992 22.2227C167.992 23.6394 168.555 24.998 169.556 25.9997C170.558 27.0014 171.917 27.5642 173.333 27.5642C174.75 27.5642 176.109 27.0014 177.11 25.9997C178.112 24.998 178.675 23.6394 178.675 22.2227L178.675 8.8894L182.222 8.8894L182.222 22.2227Z" fill="black"/>
<path d="M182.222 22.2227L187.556 22.2227L182.222 22.2227ZM164.444 22.2227L159.111 22.2227L159.111 22.2227L164.444 22.2227ZM167.992 22.2227L162.658 22.2227L162.658 22.2227L167.992 22.2227ZM173.333 27.5642L173.333 32.8975L173.333 27.5642ZM178.675 22.2227L184.008 22.2227L178.675 22.2227ZM164.444 8.88941L164.444 3.55607L159.111 3.55607L159.111 8.88941L164.444 8.88941ZM167.992 8.88941L173.325 8.88941L173.325 3.55607L167.992 3.55607L167.992 8.88941ZM178.675 8.8894L178.675 3.55607L173.341 3.55607L173.341 8.88941L178.675 8.8894ZM182.222 8.8894L187.556 8.8894L187.556 3.55607L182.222 3.55607L182.222 8.8894ZM176.889 22.2227C176.889 23.1657 176.514 24.0701 175.847 24.7369L183.39 32.2794C186.057 29.6122 187.556 25.9947 187.556 22.2227L176.889 22.2227ZM175.847 24.7369C175.181 25.4037 174.276 25.7783 173.333 25.7783L173.333 36.445C177.105 36.445 180.723 34.9465 183.39 32.2794L175.847 24.7369ZM173.333 25.7783C172.39 25.7783 171.486 25.4037 170.819 24.7369L163.277 32.2794C165.944 34.9465 169.561 36.445 173.333 36.445L173.333 25.7783ZM170.819 24.7369C170.152 24.0701 169.778 23.1657 169.778 22.2227L159.111 22.2227C159.111 25.9947 160.609 29.6122 163.277 32.2794L170.819 24.7369ZM162.658 22.2227C162.658 25.0539 163.783 27.769 165.785 29.771L173.328 22.2285C173.326 22.227 173.325 22.2249 173.325 22.2227L162.658 22.2227ZM165.785 29.771C167.787 31.7729 170.502 32.8975 173.333 32.8975L173.333 22.2309C173.331 22.2309 173.329 22.23 173.328 22.2285L165.785 29.771ZM173.333 32.8975C176.164 32.8975 178.88 31.7729 180.882 29.771L173.339 22.2285C173.338 22.23 173.335 22.2309 173.333 22.2309L173.333 32.8975ZM180.882 29.771C182.883 27.769 184.008 25.0539 184.008 22.2227L173.341 22.2227C173.341 22.2249 173.341 22.227 173.339 22.2285L180.882 29.771ZM169.778 22.2227L169.778 8.88941L159.111 8.88941L159.111 22.2227L169.778 22.2227ZM164.444 14.2227L167.992 14.2227L167.992 3.55607L164.444 3.55607L164.444 14.2227ZM162.658 8.88941L162.658 22.2227L173.325 22.2227L173.325 8.88941L162.658 8.88941ZM184.008 22.2227L184.008 8.8894L173.341 8.88941L173.341 22.2227L184.008 22.2227ZM178.675 14.2227L182.222 14.2227L182.222 3.55607L178.675 3.55607L178.675 14.2227ZM176.889 8.8894L176.889 22.2227L187.556 22.2227L187.556 8.8894L176.889 8.8894Z" fill="black" mask="url(#path-3-inside-1)"/>
<path fill-rule="evenodd" clip-rule="evenodd" d="M96.4443 31.1116H99.9998L91.111 8.88941L87.5554 8.8894L78.6665 31.1116H82.2221L89.3332 13.3339L96.4443 31.1116Z" fill="black"/>
<path fill-rule="evenodd" clip-rule="evenodd" d="M138.223 31.1116H141.778L132.889 8.88941L129.334 8.8894L120.445 31.1116H124L131.111 13.3339L138.223 31.1116Z" fill="black"/>
<path fill-rule="evenodd" clip-rule="evenodd" d="M113.733 10.7119C112.567 9.54496 110.984 8.8894 109.334 8.8894H98.667V12.4468H109.334C110.04 12.4468 110.718 12.7275 111.218 13.2273C111.718 13.7271 111.999 14.4049 111.999 15.1116C111.999 15.8184 111.718 16.4962 111.218 16.996C110.718 17.4957 110.04 17.7765 109.334 17.7765V17.7783H102.223V21.3317H109.334V21.3338C110.074 21.3338 110.815 21.3317 111.556 21.3317C112.382 21.3317 113.173 21.6597 113.757 22.2436C114.341 22.8274 114.669 23.6193 114.669 24.445C114.669 25.2706 114.341 26.0625 113.757 26.6464C113.173 27.2302 112.382 27.5582 111.556 27.5582H105.778V31.1116H111.556C113.324 31.1116 115.02 30.4092 116.27 29.159C117.52 27.9088 118.223 26.2131 118.223 24.445C118.223 22.6768 117.52 20.9812 116.27 19.7309C115.764 19.2248 115.185 18.8085 114.557 18.4922C115.204 17.4928 115.556 16.3204 115.556 15.1116C115.556 13.4614 114.9 11.8787 113.733 10.7119Z" fill="black"/>
<path fill-rule="evenodd" clip-rule="evenodd" d="M189.744 20.8286C190.757 21.4496 191.922 21.7634 193.111 21.7634C193.646 21.7634 194.172 21.9114 194.628 22.1913C195.085 22.4711 195.455 22.8717 195.698 23.3489C195.941 23.826 196.048 24.3611 196.006 24.895C195.964 25.4289 195.775 25.9408 195.46 26.374C195.145 26.8073 194.717 27.145 194.222 27.35C193.727 27.5549 193.186 27.619 192.657 27.5353C192.128 27.4515 191.632 27.2231 191.225 26.8753C190.818 26.5275 190.515 26.0738 190.349 25.5645L186.982 26.6586C187.349 27.789 188.022 28.7957 188.926 29.5676C189.829 30.3394 190.929 30.8464 192.103 31.0323C193.277 31.2182 194.479 31.0759 195.577 30.6211C196.675 30.1663 197.626 29.4167 198.325 28.4551C199.023 27.4936 199.442 26.3576 199.536 25.1728C199.629 23.988 199.393 22.8004 198.853 21.7415C198.313 20.6825 197.492 19.7934 196.478 19.1724C195.465 18.5514 194.299 18.2377 193.111 18.2377C192.575 18.2377 192.05 18.0896 191.594 17.8098C191.137 17.53 190.767 17.1293 190.524 16.6522C190.28 16.175 190.174 15.6399 190.216 15.106C190.258 14.5721 190.447 14.0603 190.762 13.627C191.076 13.1938 191.505 12.856 192 12.6511C192.494 12.4461 193.036 12.382 193.565 12.4658C194.094 12.5495 194.59 12.778 194.997 13.1258C195.404 13.4736 195.707 13.9272 195.873 14.4365L199.24 13.3424C198.873 12.2121 198.2 11.2053 197.296 10.4335C196.393 9.66159 195.293 9.15467 194.119 8.96875C192.945 8.78283 191.743 8.92514 190.645 9.37996C189.547 9.83478 188.596 10.5844 187.897 11.5459C187.199 12.5074 186.78 13.6434 186.686 14.8282C186.593 16.0131 186.829 17.2006 187.369 18.2596C187.908 19.3185 188.73 20.2077 189.744 20.8286Z" fill="black"/>
<path fill-rule="evenodd" clip-rule="evenodd" d="M159.556 30.239C158.724 30.5895 157.857 30.8361 156.972 30.9758C156.065 31.119 155.141 31.1498 154.22 31.065C152.4 30.8974 150.65 30.2836 149.124 29.2781C147.599 28.2725 146.345 26.9062 145.473 25.3002C144.602 23.6942 144.14 21.8981 144.128 20.0709C144.116 18.2437 144.556 16.4418 145.407 14.825C146.258 13.2081 147.495 11.8261 149.008 10.8013C150.52 9.77659 152.263 9.14078 154.08 8.95019C155 8.85371 155.925 8.87284 156.834 9.00462C157.72 9.13312 158.59 9.36875 159.426 9.70872L158.088 12.9979C158.087 12.9977 158.087 12.9976 158.087 12.9975C156.935 12.5293 155.686 12.3521 154.45 12.4818C153.214 12.6114 152.028 13.0441 150.999 13.7413C149.97 14.4386 149.128 15.3789 148.549 16.4791C147.97 17.5792 147.671 18.8052 147.679 20.0485C147.687 21.2917 148.001 22.5138 148.594 23.6066C149.187 24.6993 150.04 25.629 151.078 26.3132C152.117 26.9973 153.307 27.4149 154.545 27.529C155.783 27.643 157.03 27.45 158.176 26.967L159.556 30.239Z" fill="black"/>
</svg>
